<svg xmlns="http://www.w3.org/2000/svg" xmlns:xlink="http://www.w3.org/1999/xlink" width="500" viewBox="0 0 375 374.999991" height="500" preserveAspectRatio="xMidYMid meet"><defs><clipPath id="a7e20f33b6"><path d="M 23.597656 23.597656 L 351.347656 23.597656 L 351.347656 351.347656 L 23.597656 351.347656 Z M 23.597656 23.597656 " clip-rule="nonzero"></path></clipPath></defs><g clip-path="url(#a7e20f33b6)"><path fill="#ba8b4f" d="M 187.472656 23.597656 C 96.96875 23.597656 23.597656 96.96875 23.597656 187.472656 C 23.597656 277.980469 96.96875 351.347656 187.472656 351.347656 C 277.980469 351.347656 351.347656 277.980469 351.347656 187.472656 C 351.347656 96.96875 277.980469 23.597656 187.472656 23.597656 Z M 187.472656 81.210938 C 211.171875 81.210938 230.382812 103.914062 230.382812 131.921875 C 230.382812 159.929688 211.171875 182.632812 187.472656 182.632812 C 163.773438 182.632812 144.5625 159.929688 144.5625 131.921875 C 144.5625 103.914062 163.773438 81.210938 187.472656 81.210938 Z M 260.101562 280.933594 L 114.84375 280.933594 C 107.558594 280.933594 101.65625 275.027344 101.65625 267.746094 C 101.65625 233.664062 140.078125 206.035156 187.472656 206.035156 C 234.871094 206.035156 273.292969 233.664062 273.292969 267.746094 C 273.292969 275.027344 267.386719 280.933594 260.101562 280.933594 Z M 260.101562 280.933594 " fill-opacity="1" fill-rule="nonzero"></path></g></svg>